<svg id="Layer_8" data-name="Layer 8" xmlns="http://www.w3.org/2000/svg" viewBox="0 0 1080 156.14"><defs><style>.cls-1{fill:#fff;}</style></defs><title>azbagas-logo-full-white</title><path class="cls-1" d="M471.47,587.48q-14.18,0-22.2-6.66a21.54,21.54,0,0,1-8-17.41,26.39,26.39,0,0,1,3.08-12.67,29.42,29.42,0,0,1,9.33-10.12,48.57,48.57,0,0,1,15.76-6.84,89.15,89.15,0,0,1,22.2-2.46q1.12,0,3,.09t4.1.09q2.24,0,4.1.19l.56,16a32.4,32.4,0,0,0-3.82-.19h-8.68a68.76,68.76,0,0,0-12.78,1,24.15,24.15,0,0,0-7.83,2.73,10.08,10.08,0,0,0-4,4,11.06,11.06,0,0,0-1.12,4.93,9.87,9.87,0,0,0,.84,4.13,6.36,6.36,0,0,0,2.33,2.82,11.71,11.71,0,0,0,3.64,1.5,19,19,0,0,0,4.57.53,22.22,22.22,0,0,0,8.77-1.59,14.86,14.86,0,0,0,6.25-5,23.55,23.55,0,0,0,3.73-8.82A58.85,58.85,0,0,0,496.47,541q0-9.7-2.05-14.82t-5.78-7.06a20.08,20.08,0,0,0-9.33-1.94,33.21,33.21,0,0,0-10.91,1.77q-5.13,1.78-10.35,7.18l-13.24-14a45.62,45.62,0,0,1,17.07-10.26,59.5,59.5,0,0,1,18.37-3,61.71,61.71,0,0,1,15.2,1.82,35.68,35.68,0,0,1,12.69,5.91,27.58,27.58,0,0,1,8.68,11.28q3.17,7.18,3.17,17.92V586H495.72v-9a40.19,40.19,0,0,1-4.94,4.85,21.37,21.37,0,0,1-5.5,3.26,29.65,29.65,0,0,1-6.34,1.77A45.54,45.54,0,0,1,471.47,587.48Z" transform="translate(0 -461.93)"/><path class="cls-1" d="M535.46,572.18l46.45-52H539.19v-19.4H611v14.74l-45.33,51.12h40.67a24.41,24.41,0,0,0,4.48-.28,4.88,4.88,0,0,0,2.42-1.4h2.05V586H535.46Z" transform="translate(0 -461.93)"/><path class="cls-1" d="M666.32,586.26a26.64,26.64,0,0,1-7.84-3.73,31.25,31.25,0,0,1-6.62-6.25l-3.17,9.7H630.23V461.93H655.6v1.89a5.71,5.71,0,0,0-1.21,2.46,25.37,25.37,0,0,0-.28,4.55v38.85a23,23,0,0,1,4.29-4.57,28.64,28.64,0,0,1,5.22-3.36,27.15,27.15,0,0,1,6-2.15,27.69,27.69,0,0,1,6.34-.75,40.64,40.64,0,0,1,14.46,2.8,28.43,28.43,0,0,1,11,7.94,37.46,37.46,0,0,1,7.09,13.27A61.63,61.63,0,0,1,711,541.46a66.51,66.51,0,0,1-2.8,20.39,39.69,39.69,0,0,1-7.84,14.35,32.44,32.44,0,0,1-11.57,8.48,35.19,35.19,0,0,1-14,2.8A30.43,30.43,0,0,1,666.32,586.26Zm10.45-18.11a14.18,14.18,0,0,0,5.6-4.42,23.13,23.13,0,0,0,3.73-7.95,44.7,44.7,0,0,0,1.4-12,52.8,52.8,0,0,0-1.12-11.39,27.82,27.82,0,0,0-3.36-8.66,16.27,16.27,0,0,0-5.5-5.56,14.14,14.14,0,0,0-7.37-1.94,12.6,12.6,0,0,0-8.58,3.09,18.69,18.69,0,0,0-5.32,8.83,52.69,52.69,0,0,0-2,14.22,66.55,66.55,0,0,0,.93,11.84,26.15,26.15,0,0,0,2.89,8.48A14.22,14.22,0,0,0,663,567.8a12.79,12.79,0,0,0,6.81,1.77A17.4,17.4,0,0,0,676.77,568.16Z" transform="translate(0 -461.93)"/><path class="cls-1" d="M751.3,587.48q-14.18,0-22.2-6.66a21.54,21.54,0,0,1-8-17.41,26.39,26.39,0,0,1,3.08-12.67,29.42,29.42,0,0,1,9.33-10.12,48.57,48.57,0,0,1,15.76-6.84,89.15,89.15,0,0,1,22.2-2.46q1.12,0,3,.09t4.1.09q2.24,0,4.1.19l.56,16a32.4,32.4,0,0,0-3.82-.19H770.7a68.76,68.76,0,0,0-12.78,1,24.15,24.15,0,0,0-7.83,2.73,10.08,10.08,0,0,0-4,4,11.06,11.06,0,0,0-1.12,4.93,9.87,9.87,0,0,0,.84,4.13,6.36,6.36,0,0,0,2.33,2.82,11.71,11.71,0,0,0,3.64,1.5,19,19,0,0,0,4.57.53,22.22,22.22,0,0,0,8.77-1.59,14.86,14.86,0,0,0,6.25-5,23.55,23.55,0,0,0,3.73-8.82A58.85,58.85,0,0,0,776.3,541q0-9.7-2.05-14.82t-5.78-7.06a20.08,20.08,0,0,0-9.33-1.94,33.21,33.21,0,0,0-10.91,1.77q-5.13,1.78-10.35,7.18l-13.24-14a45.62,45.62,0,0,1,17.07-10.26,59.5,59.5,0,0,1,18.37-3,61.71,61.71,0,0,1,15.2,1.82A35.68,35.68,0,0,1,788,506.6a27.58,27.58,0,0,1,8.68,11.28q3.17,7.18,3.17,17.92V586H775.55v-9a40.19,40.19,0,0,1-4.94,4.85,21.37,21.37,0,0,1-5.5,3.26,29.65,29.65,0,0,1-6.34,1.77A45.54,45.54,0,0,1,751.3,587.48Z" transform="translate(0 -461.93)"/><path class="cls-1" d="M852.6,618.07a76.69,76.69,0,0,1-16.6-1.62,43.76,43.76,0,0,1-12.41-4.6,21.85,21.85,0,0,1-7.74-7.13,16.62,16.62,0,0,1-2.61-9,14.91,14.91,0,0,1,2.24-7.85,23,23,0,0,1,6.16-6.59,33.23,33.23,0,0,1,8.39-4.51l10.82,4q-2.24,1.57-4.66,3.15a18.59,18.59,0,0,0-4,3.41,6.35,6.35,0,0,0-1.59,4.29,4.61,4.61,0,0,0,1.86,3.76,15,15,0,0,0,5.22,2.45,44.26,44.26,0,0,0,7.65,1.4,94.59,94.59,0,0,0,9.51.44,54.86,54.86,0,0,0,11.38-1,19,19,0,0,0,7.18-2.86,5.36,5.36,0,0,0,2.52-4.37,4.74,4.74,0,0,0-1.49-3.7,10.18,10.18,0,0,0-5-2,59.76,59.76,0,0,0-9.89-.63q-6,0-11.85-.45a72.22,72.22,0,0,1-11.19-1.71,43.47,43.47,0,0,1-9.61-3.43,18.22,18.22,0,0,1-6.62-5.32,12.85,12.85,0,0,1-2.33-7.85,16,16,0,0,1,3.92-10.92,39.74,39.74,0,0,1,9.33-7.8l10.63,5.6a32.74,32.74,0,0,1-3.17,2.48,17.3,17.3,0,0,0-2.42,1.93,3.7,3.7,0,0,0-.93,2.76q0,1.81,3.17,3.25t10,2.08q6.81.63,17.81.63a43.17,43.17,0,0,1,13.34,1.81,22.69,22.69,0,0,1,8.86,5.05,20.51,20.51,0,0,1,4.94,7.31,24.06,24.06,0,0,1-.93,19.31,27.32,27.32,0,0,1-7.74,9.29,39.66,39.66,0,0,1-13.25,6.59A65.16,65.16,0,0,1,852.6,618.07Zm-.93-61A36.05,36.05,0,0,1,835,553.2,31.31,31.31,0,0,1,823,542.84a25.48,25.48,0,0,1-4.38-14.6,26.62,26.62,0,0,1,4.38-15A30.75,30.75,0,0,1,835,502.74a38.11,38.11,0,0,1,33.49,0,31,31,0,0,1,11.85,10.54,26.64,26.64,0,0,1,4.38,15,25.49,25.49,0,0,1-4.38,14.6,31.52,31.52,0,0,1-11.85,10.36A35.91,35.91,0,0,1,851.66,557.07Zm-.19-16.79a15.11,15.11,0,0,0,6.72-1.46,10.86,10.86,0,0,0,4.66-4.29,12.06,12.06,0,0,0,1.68-6.27,11.06,11.06,0,0,0-1.68-6.18,11.29,11.29,0,0,0-4.76-4,15.25,15.25,0,0,0-6.62-1.46,12.7,12.7,0,0,0-6.06,1.54,14.75,14.75,0,0,0-4.85,4.12,9.64,9.64,0,0,0-2,6,10.85,10.85,0,0,0,1.77,6,13.12,13.12,0,0,0,4.66,4.38A12.87,12.87,0,0,0,851.48,540.28Zm27.8-22.76-9-11.19a42,42,0,0,1,12.22-5.88,40.43,40.43,0,0,1,14.83-1.59l2.05,15.48a30.16,30.16,0,0,0-10.82-.28A22.93,22.93,0,0,0,879.27,517.52Z" transform="translate(0 -461.93)"/><path class="cls-1" d="M937.85,587.48q-14.18,0-22.2-6.66a21.54,21.54,0,0,1-8-17.41,26.39,26.39,0,0,1,3.08-12.67A29.42,29.42,0,0,1,920,540.62a48.57,48.57,0,0,1,15.76-6.84,89.15,89.15,0,0,1,22.2-2.46q1.12,0,3,.09t4.1.09q2.24,0,4.1.19l.56,16a32.4,32.4,0,0,0-3.82-.19h-8.68a68.76,68.76,0,0,0-12.78,1,24.15,24.15,0,0,0-7.83,2.73,10.08,10.08,0,0,0-4,4,11.06,11.06,0,0,0-1.12,4.93,9.87,9.87,0,0,0,.84,4.13,6.36,6.36,0,0,0,2.33,2.82,11.71,11.71,0,0,0,3.64,1.5,19,19,0,0,0,4.57.53,22.22,22.22,0,0,0,8.77-1.59,14.86,14.86,0,0,0,6.25-5,23.55,23.55,0,0,0,3.73-8.82A58.85,58.85,0,0,0,962.85,541q0-9.7-2.05-14.82T955,519.09a20.08,20.08,0,0,0-9.33-1.94,33.21,33.21,0,0,0-10.91,1.77q-5.13,1.78-10.35,7.18l-13.24-14a45.62,45.62,0,0,1,17.07-10.26,59.5,59.5,0,0,1,18.37-3,61.71,61.71,0,0,1,15.2,1.82,35.68,35.68,0,0,1,12.69,5.91,27.58,27.58,0,0,1,8.68,11.28q3.17,7.18,3.17,17.92V586H962.1v-9a40.19,40.19,0,0,1-4.94,4.85,21.37,21.37,0,0,1-5.5,3.26,29.65,29.65,0,0,1-6.34,1.77A45.54,45.54,0,0,1,937.85,587.48Z" transform="translate(0 -461.93)"/><path class="cls-1" d="M1028.33,586a61.42,61.42,0,0,1-13.9-4.48,42.34,42.34,0,0,1-11.66-8l9.89-18.66.75-1.49,1.68.93a26.56,26.56,0,0,0,1,2.89,11.22,11.22,0,0,0,2.89,3.64,36.4,36.4,0,0,0,11,6.06,43,43,0,0,0,14.18,2.15,29.66,29.66,0,0,0,7.93-.92,12.22,12.22,0,0,0,5.13-2.67,5,5,0,0,0,.65-7.18,10.87,10.87,0,0,0-3.64-2.62,46.45,46.45,0,0,0-6.16-2.35q-3.73-1.17-9-2.62a76.54,76.54,0,0,1-16.42-5.86,29.53,29.53,0,0,1-10.63-8.57,19.78,19.78,0,0,1-3.73-12.09,20.31,20.31,0,0,1,4.38-12.72,30.31,30.31,0,0,1,12.31-9.11,45.94,45.94,0,0,1,18.38-3.43,60.75,60.75,0,0,1,10.17.84,54.27,54.27,0,0,1,9.33,2.42,41.31,41.31,0,0,1,8.3,4.1,50.87,50.87,0,0,1,7.46,5.88l-11.19,16-1.12,1.49-1.68-1.31a8.64,8.64,0,0,0-.84-2.8,14.74,14.74,0,0,0-2.7-3.36,24.66,24.66,0,0,0-8.21-3.73,37.59,37.59,0,0,0-9.14-1.12,28.7,28.7,0,0,0-10.17,1.66q-4.39,1.65-4.38,5a4.93,4.93,0,0,0,2.14,3.88,21.28,21.28,0,0,0,6.72,3.16q4.57,1.44,11.66,3.25a66.38,66.38,0,0,1,17.26,6,25.76,25.76,0,0,1,9.79,8.66,21.61,21.61,0,0,1,3.17,11.73,23.17,23.17,0,0,1-4.2,13.36,29.12,29.12,0,0,1-12.22,9.83q-8,3.7-19.59,3.7A79.86,79.86,0,0,1,1028.33,586Z" transform="translate(0 -461.93)"/><path class="cls-1" d="M81,591.77,0,543.82V531.51l80.4-43.09v21.27L23.88,537.86,81,569.2Z" transform="translate(0 -461.93)"/><path class="cls-1" d="M152,606.5,94.77,483.76,116.6,473.5l57.27,122.75Z" transform="translate(0 -461.93)"/><path class="cls-1" d="M245.32,606.5,188,483.76l21.83-10.26,57.27,122.75Z" transform="translate(0 -461.93)"/><path class="cls-1" d="M280.76,591.77V570.13l56.9-32.27-56.71-28.17V488.42l80.78,43.09v12.31Z" transform="translate(0 -461.93)"/></svg>